<?xml version="1.0" encoding="UTF-8" standalone="no"?><!DOCTYPE svg PUBLIC "-//W3C//DTD SVG 1.1//EN" "http://www.w3.org/Graphics/SVG/1.1/DTD/svg11.dtd"><svg width="100%" height="100%" viewBox="0 0 518 74" version="1.1" xmlns="http://www.w3.org/2000/svg" xmlns:xlink="http://www.w3.org/1999/xlink" xml:space="preserve" xmlns:serif="http://www.serif.com/" style="fill-rule:evenodd;clip-rule:evenodd;stroke-linejoin:round;stroke-miterlimit:1.41421;"><g><path d="M503.825,18.571l2.659,0l0,-1.268l-6.797,0l0,1.268l2.66,0l0,7.776l1.478,0l0,-7.776Zm9.26,7.776l2.716,-7.541l0.048,0c-0.015,0.152 -0.035,0.589 -0.058,1.311c-0.023,0.721 -0.034,1.308 -0.034,1.756l0,4.474l1.423,0l0,-9.044l-2.091,0l-2.585,7.193l-0.038,0l-2.511,-7.193l-2.084,0l0,9.044l1.342,0l0,-4.399c0,-0.981 -0.035,-2.034 -0.105,-3.155l0.049,0l2.622,7.554l1.306,0Z" style="fill:#333;fill-rule:nonzero;"/><path d="M133.557,19.347l0.004,-18.794l-3.524,-0.007l0.032,18.801l-8.42,0l0,3.488l8.371,0l0.004,34.413c0,9.106 7.389,16.511 16.496,16.511l0,-3.486c-7.185,0 -13.037,-5.826 -13.037,-13.01l0.011,-34.428l20.439,0l0.003,34.413c0,9.106 7.389,16.511 16.496,16.511l0,-3.486c-7.184,0 -13.037,-5.826 -13.037,-13.01l0.011,-34.428l8.138,0l0,-3.488l-8.075,0l0.004,-18.794l-3.494,-0.007l0.003,18.801l-20.425,0Z" style="fill:#333;fill-rule:nonzero;"/><path d="M457.591,34.928l-27.059,22.914l0,-57.202l-3.476,0l0,72.321l3.476,0l0,-10.536l28.441,-24.1c3.145,4.928 10.213,6.576 16.054,7.937c4.979,1.16 10.369,2.57 13.235,7.25c4.605,7.52 -2.255,14.962 -9.757,16.499c-8.985,1.84 -19.86,-3.473 -21.796,-12.919c-0.186,-0.909 -0.29,-1.852 -0.3,-2.823l-3.462,0.026c0.012,1.211 0.138,2.374 0.367,3.49c2.319,11.313 15.024,17.846 25.883,15.621c9.751,-1.998 17.974,-11.986 12.025,-21.701c-3.433,-5.604 -9.418,-7.429 -15.406,-8.824c-6.669,-1.554 -15.226,-3.548 -15.024,-10.921c0.176,-6.421 6.336,-9.961 12.726,-10.118c6.554,-0.161 13.352,3.25 14.188,11.928l3.448,-0.326c-1.059,-10.817 -9.507,-15.247 -17.693,-15.053c-8.084,0.192 -15.915,4.886 -16.132,13.475c-0.03,1.11 0.063,2.128 0.262,3.062Z" style="fill:#333;fill-rule:nonzero;"/><path d="M27.711,70.512c-13.356,0 -24.223,-10.865 -24.223,-24.222c0,-13.357 10.867,-24.222 24.223,-24.222c13.357,0 24.223,10.865 24.223,24.222c0,13.357 -10.866,24.222 -24.223,24.222Zm0,-51.933c-10.419,0 -19.492,5.755 -24.224,14.258l0,-32.288l-3.487,0l0.002,45.741c0,15.303 12.405,27.71 27.709,27.71c15.304,0 27.711,-12.407 27.711,-27.71c0,-15.303 -12.407,-27.711 -27.711,-27.711Z" style="fill:#333;fill-rule:nonzero;"/><path d="M90.643,22.068c12.15,0 22.23,8.992 23.956,20.668l-47.915,0c1.724,-11.676 11.811,-20.668 23.959,-20.668Zm0,48.445c-13.356,0 -24.222,-10.866 -24.222,-24.223c0.197,0 51.93,-0.024 51.93,-0.024c-0.069,-15.246 -12.445,-27.686 -27.708,-27.686c-15.304,0 -27.71,12.407 -27.71,27.71c0,15.304 12.406,27.709 27.71,27.709c11.829,0 21.92,-7.412 25.897,-17.844l-3.782,0c-3.785,8.452 -12.27,14.358 -22.115,14.358Z" style="fill:#333;fill-rule:nonzero;"/><path d="M198.904,22.068c12.148,0 22.23,8.992 23.954,20.668l-47.914,0c1.725,-11.676 11.811,-20.668 23.96,-20.668Zm0,48.445c-13.356,0 -24.222,-10.866 -24.222,-24.223c0,-0.021 51.928,-0.024 51.928,-0.024c-0.069,-15.246 -12.445,-27.686 -27.706,-27.686c-15.304,0 -27.71,12.407 -27.71,27.71c0,15.304 12.406,27.709 27.71,27.709c11.827,0 21.919,-7.412 25.895,-17.844l-3.782,0c-3.785,8.452 -12.27,14.358 -22.113,14.358Z" style="fill:#333;fill-rule:nonzero;"/><path d="M399.214,28.248l-0.016,-8.924l-3.487,0l0.11,53.604l3.487,0l-0.069,-33.673c0.357,-9.542 8.209,-17.2 17.838,-17.2l0,-3.49c-7.467,0 -14.045,3.859 -17.863,9.683Z" style="fill:#333;fill-rule:nonzero;"/><path d="M325.291,19.323l-18.911,47.586l-10.471,-26.039l8.498,-21.547l-3.74,0l-6.626,16.728l-6.576,-16.728l-3.741,0l8.445,21.547l-10.436,25.958l-19.33,-48.262l-5.699,0c-7.47,0 -14.045,3.858 -17.865,9.682l-0.016,-8.93l-3.487,0l0.108,53.61l3.488,0l-0.068,-33.673c0.355,-9.542 8.209,-17.2 17.84,-17.2l3.323,0l20.449,50.909l2.589,0l10.976,-27.279l11.004,27.326l2.724,0l21.26,-53.688l-3.738,0Z" style="fill:#333;fill-rule:nonzero;"/><path d="M358.14,18.58c-15.305,0 -27.71,12.406 -27.71,27.71c0,15.304 12.405,27.71 27.71,27.71c15.303,0 27.711,-12.406 27.711,-27.71c0,-15.304 -12.408,-27.71 -27.711,-27.71Zm0,3.488c13.355,0 24.221,10.866 24.221,24.222c0,13.356 -10.866,24.223 -24.221,24.223c-13.357,0 -24.223,-10.867 -24.223,-24.223c0,-13.356 10.866,-24.222 24.223,-24.222Z" style="fill:#333;fill-rule:nonzero;"/></g></svg>